<?xml version="1.0" encoding="UTF-8"?>
<svg width="48px" height="48px" viewBox="0 0 256 256" version="1.1" xmlns="http://www.w3.org/2000/svg" xmlns:xlink="http://www.w3.org/1999/xlink" preserveAspectRatio="xMidYMid">
    <defs>
        <linearGradient x1="98.0308675%" y1="0.160599572%" x2="58.8877062%" y2="40.7655246%" id="linearGradient-1">
            <stop stop-color="#0052CC" offset="18%"></stop>
            <stop stop-color="#2684FF" offset="100%"></stop>
        </linearGradient>
        <linearGradient x1="100.665247%" y1="0.45503212%" x2="55.4018095%" y2="44.7269807%" id="linearGradient-2">
            <stop stop-color="#0052CC" offset="18%"></stop>
            <stop stop-color="#2684FF" offset="100%"></stop>
        </linearGradient>
    </defs>
    <g>
        <path d="M244.657778,0 L121.706667,0 C121.706667,14.7201046 127.554205,28.837294 138.35126,39.2833653 C149.148315,49.7294366 163.721645,55.3333333 178.912,55.3333333 L201.144889,55.3333333 L201.144889,76.8 C201.173141,108.323925 226.933333,133.955832 259,134 L244.657778,0 Z" fill="#2684FF"></path>
        <path d="M183.562667,61.2 L60.6115556,61.2 C60.6115556,75.9201046 66.4590935,90.037294 77.2561485,100.483365 C88.0532035,110.929437 102.626534,116.533333 117.816889,116.533333 L140.049778,116.533333 L140.049778,138 C140.078029,169.523925 165.838222,195.155832 197.904889,195.2 L183.562667,61.2 Z" fill="url(#linearGradient-1)"></path>
        <path d="M122.467556,122.4 L0,122.4 C0,137.120105 5.84753791,151.237294 16.6445929,161.683365 C27.4416479,172.129437 41.9994791,177.733333 57.1898333,177.733333 L79.4227222,177.733333 L79.4227222,199.2 C79.4509741,230.723925 105.211167,256.355832 137.277833,256.4 L122.467556,122.4 Z" fill="url(#linearGradient-2)"></path>
    </g>
</svg> 