<?xml version="1.0" encoding="UTF-8"?>
<svg version="1.1" xmlns="http://www.w3.org/2000/svg" width="500" height="500">
<path d="M0 0 C165 0 330 0 500 0 C500 165 500 330 500 500 C335 500 170 500 0 500 C0 335 0 170 0 0 Z " fill="#FEFEFE" transform="translate(0,0)"/>
<path d="M0 0 C29.7 0 59.4 0 90 0 C90.16065467 30.57793954 90.16065467 30.57793954 90.20101547 45.65817833 C90.22319997 53.82120415 90.25138498 61.98406688 90.30175781 70.14697266 C90.34161469 76.60884709 90.36743016 83.07059859 90.37635398 89.53259254 C90.38157078 92.95454357 90.393839 96.3761429 90.42292023 99.79798126 C90.45185016 103.61716283 90.45596019 107.43560975 90.45410156 111.25488281 C90.46848267 112.39064255 90.48286377 113.52640228 90.49768066 114.69657898 C90.49218201 115.73701859 90.48668335 116.77745819 90.48101807 117.84942627 C90.48470524 118.75278339 90.48839241 119.65614052 90.49219131 120.5868721 C89.84242533 123.77256102 88.50234249 124.99556978 86 127 C85.34 127 84.68 127 84 127 C83.7834375 127.54140625 83.566875 128.0828125 83.34375 128.640625 C81.53500003 131.81645344 79.08276201 134.20728081 76.5 136.75 C76.00113281 137.25660156 75.50226563 137.76320313 74.98828125 138.28515625 C71.25341139 142 71.25341139 142 69 142 C68.7834375 142.53367187 68.566875 143.06734375 68.34375 143.6171875 C66.51051876 146.86797545 64.0451153 149.42809172 61.5 152.125 C60.97043701 152.69178467 60.44087402 153.25856934 59.89526367 153.8425293 C50.1706878 164.19787275 50.1706878 164.19787275 45 169 C44.67 169 44.34 169 44 169 C44 128.41 44 87.82 44 46 C29.48 46 14.96 46 0 46 C0 30.82 0 15.64 0 0 Z " fill="#972DF6" transform="translate(169,176)"/>
<path d="M0 0 C19.14 0 38.28 0 58 0 C54.70506842 3.29493158 51.64297795 6.22310262 48.0625 9.125 C46.62197266 10.29289063 46.62197266 10.29289063 45.15234375 11.484375 C41.2426485 14.61805311 37.28480437 17.69014647 33.33422852 20.77197266 C29.31090287 23.92694283 25.3840067 27.17551336 21.5 30.5 C16.82742752 34.49690665 12.07941547 38.38130766 7.25 42.1875 C6.64091797 42.66960937 6.03183594 43.15171875 5.40429688 43.6484375 C1.12392893 47 1.12392893 47 0 47 C0 31.49 0 15.98 0 0 Z " fill="#25C9CF" transform="translate(271,176)"/>
<path d="M0 0 C29.7 0 59.4 0 90 0 C90 40.59 90 81.18 90 123 C88.515 123.495 88.515 123.495 87 124 C87.495 122.515 87.495 122.515 88 121 C88.10116239 119.36346609 88.14622539 117.72318613 88.15821838 116.08357239 C88.1680072 115.06974991 88.17779602 114.05592743 88.18788147 113.01138306 C88.19363693 111.90008026 88.1993924 110.78877747 88.20532227 109.64379883 C88.21522186 108.47293228 88.22512146 107.30206573 88.23532104 106.09571838 C88.26151161 102.88526745 88.28337254 99.67482178 88.30332303 96.4643271 C88.32519211 93.10905931 88.35257629 89.75383669 88.37937927 86.39860535 C88.4292937 80.04510543 88.47423716 73.69158044 88.51740164 67.33803147 C88.57162824 59.39524244 88.63247776 51.45250595 88.69335938 43.50976562 C88.80194313 29.3398841 88.90049487 15.16995464 89 1 C60.29 1 31.58 1 2 1 C2 15.52 2 30.04 2 45 C16.52 44.67 31.04 44.34 46 44 C46 82.94 46 121.88 46 162 C47.65 162 49.3 162 51 162 C50.02433888 163.16959987 49.044375 164.33561177 48.0625 165.5 C47.24458984 166.47453125 47.24458984 166.47453125 46.41015625 167.46875 C45.94480469 167.9740625 45.47945312 168.479375 45 169 C44.67 169 44.34 169 44 169 C44 128.41 44 87.82 44 46 C29.48 46 14.96 46 0 46 C0 30.82 0 15.64 0 0 Z " fill="#883FC8" transform="translate(169,176)"/>
<path d="M0 0 C0 38.94 0 77.88 0 118 C1.65 118 3.3 118 5 118 C4.02433888 119.16959987 3.044375 120.33561177 2.0625 121.5 C1.24458984 122.47453125 1.24458984 122.47453125 0.41015625 123.46875 C-0.05519531 123.9740625 -0.52054688 124.479375 -1 125 C-1.33 125 -1.66 125 -2 125 C-2 84.41 -2 43.82 -2 2 C-14.21 2 -26.42 2 -39 2 C-39 1.67 -39 1.34 -39 1 C-34.57092712 0.85615173 -30.14180964 0.71378867 -25.71264648 0.57275391 C-24.20840186 0.52465165 -22.70416976 0.47615577 -21.19995117 0.42724609 C-19.02786446 0.35669107 -16.85573543 0.28758938 -14.68359375 0.21875 C-12.72764282 0.1559082 -12.72764282 0.1559082 -10.73217773 0.09179688 C-7.15573595 0.00383049 -3.57752344 0 0 0 Z " fill="#8C35E5" transform="translate(215,220)"/>
<path d="M0 0 C0.33 0 0.66 0 1 0 C1 38.61 1 77.22 1 117 C3.475 116.01 3.475 116.01 6 115 C4.35830472 117.02054804 2.69088222 119.02043058 1 121 C0.67 121 0.34 121 0 121 C0 81.07 0 41.14 0 0 Z " fill="#8241C2" transform="translate(213,224)"/>
<path d="M0 0 C-1.78572252 1.83947337 -3.57802449 3.67157741 -5.375 5.5 C-5.88289062 6.02464844 -6.39078125 6.54929687 -6.9140625 7.08984375 C-8.23832604 8.43153181 -9.61605865 9.71995815 -11 11 C-11.66 11 -12.32 11 -13 11 C-13.28875 11.639375 -13.5775 12.27875 -13.875 12.9375 C-15 15 -15 15 -17 16 C-16.67 14.02 -16.34 12.04 -16 10 C-14.68 10 -13.36 10 -12 10 C-12 9.34 -12 8.68 -12 8 C-11.34 8 -10.68 8 -10 8 C-10 7.34 -10 6.68 -10 6 C-9.34 5.67 -8.68 5.34 -8 5 C-8 3.68 -8 2.36 -8 1 C-3.375 -1.125 -3.375 -1.125 0 0 Z " fill="#8E3ADC" transform="translate(251,307)"/>
<path d="M0 0 C-1.39332574 3.36720387 -2.9789286 4.9859524 -6 7 C-6 6.34 -6 5.68 -6 5 C-6.99 5 -7.98 5 -9 5 C-8.67 3.35 -8.34 1.7 -8 0 C-4.71023192 -1.09658936 -3.28696233 -0.79953138 0 0 Z " fill="#9534EC" transform="translate(226,331)"/>
<path d="M0 0 C0.66 0.33 1.32 0.66 2 1 C-0.69980119 6.29576387 -3.2311858 9.30173593 -8 13 C-8.886875 13.928125 -9.77375 14.85625 -10.6875 15.8125 C-13 18 -13 18 -16 18 C-15.43152344 17.45472656 -14.86304688 16.90945313 -14.27734375 16.34765625 C-9.02168326 11.21483257 -4.35105211 5.91799049 0 0 Z " fill="#FEEBFF" transform="translate(238,318)"/>
<path d="M0 0 C0 1.32 0 2.64 0 4 C-0.99 4 -1.98 4 -3 4 C-3.33 4.66 -3.66 5.32 -4 6 C-4.5775 6.268125 -5.155 6.53625 -5.75 6.8125 C-8.24451423 7.98195452 -8.24451423 7.98195452 -10.5625 10.625 C-13 13 -13 13 -16 13 C-16 13.66 -16 14.32 -16 15 C-16.99 14.67 -17.98 14.34 -19 14 C-18.27554687 13.40832031 -17.55109375 12.81664062 -16.8046875 12.20703125 C-15.83789062 11.41683594 -14.87109375 10.62664062 -13.875 9.8125 C-12.87339844 8.99523437 -11.87179687 8.17796875 -10.83984375 7.3359375 C-8.68160817 5.56066256 -6.55292595 3.76278025 -4.4375 1.9375 C-2 0 -2 0 0 0 Z " fill="#D9FAF9" transform="translate(291,208)"/>
<path d="M0 0 C1.32 0.33 2.64 0.66 4 1 C1.03 3.64 -1.94 6.28 -5 9 C-5.99 8.01 -6.98 7.02 -8 6 C-7.67 5.01 -7.34 4.02 -7 3 C-3.535 2.505 -3.535 2.505 0 2 C0 1.34 0 0.68 0 0 Z " fill="#34C8C9" transform="translate(296,199)"/>
<path d="M0 0 C0.66 0 1.32 0 2 0 C2 0.99 2 1.98 2 3 C3.98 2.67 5.96 2.34 8 2 C4.375 6.875 4.375 6.875 1 8 C1 7.34 1 6.68 1 6 C0.34 6 -0.32 6 -1 6 C-1.625 4.125 -1.625 4.125 -2 2 C-1.34 1.34 -0.68 0.68 0 0 Z " fill="#32C7CD" transform="translate(308,184)"/>
<path d="M0 0 C0.66 0.33 1.32 0.66 2 1 C-1.36329493 6.7501494 -3.76531083 8.83492155 -10.20703125 10.58984375 C-10.79871094 10.72519531 -11.39039063 10.86054688 -12 11 C-8.19588166 7.08060535 -4.18423892 3.50897269 0 0 Z " fill="#D8FBFC" transform="translate(321,182)"/>
<path d="M0 0 C0.33 0.99 0.66 1.98 1 3 C0.34 3 -0.32 3 -1 3 C-1 3.66 -1 4.32 -1 5 C-0.01 4.67 0.98 4.34 2 4 C2 4.99 2 5.98 2 7 C-4.625 8 -4.625 8 -8 8 C-5.36 5.36 -2.72 2.72 0 0 Z " fill="#F8E8F9" transform="translate(221,337)"/>
<path d="M0 0 C0.66 0.33 1.32 0.66 2 1 C1.34 2.65 0.68 4.3 0 6 C-0.66 6 -1.32 6 -2 6 C-2.33 6.99 -2.66 7.98 -3 9 C-3.33 9 -3.66 9 -4 9 C-4.125 3.25 -4.125 3.25 -3 1 C-2.01 0.67 -1.02 0.34 0 0 Z " fill="#903BE4" transform="translate(255,297)"/>
<path d="M0 0 C0.66 0.33 1.32 0.66 2 1 C-0.64 3.97 -3.28 6.94 -6 10 C-6.99 9.34 -7.98 8.68 -9 8 C-6.03 5.36 -3.06 2.72 0 0 Z " fill="#D2F8FA" transform="translate(301,198)"/>
<path d="M0 0 C0.99 0.33 1.98 0.66 3 1 C0.36 2.98 -2.28 4.96 -5 7 C-5.99 5.68 -6.98 4.36 -8 3 C-5 2 -5 2 -2.875 1.5 C-1.00094893 1.16796102 -1.00094893 1.16796102 0 0 Z " fill="#3CC5C5" transform="translate(306,192)"/>
<path d="M0 0 C0.66 0.33 1.32 0.66 2 1 C0.68 3.31 -0.64 5.62 -2 8 C-3.32 7.67 -4.64 7.34 -6 7 C-4.02 4.69 -2.04 2.38 0 0 Z " fill="#E7BFFE" transform="translate(238,318)"/>
</svg>
